<svg id="Layer_1" data-name="Layer 1" xmlns="http://www.w3.org/2000/svg" viewBox="0 0 857.87 1080"><defs><style>.cls-1{fill:#663424;}.cls-2{fill:#ac4726;}.cls-3{fill:#f15a29;}.cls-4{fill:#212121;}</style></defs><polygon class="cls-1" points="225.96 734.79 264.96 751.84 274.17 755.85 338.7 784.07 386.91 805.15 451.44 833.35 471.9 842.3 471.9 908.72 451.44 899.77 386.91 871.54 338.7 850.46 274.17 822.26 225.96 801.18 189.03 785.04 161.45 772.98 161.45 301.87 187.9 290.31 225.96 273.67 274.17 252.59 338.7 224.39 386.91 203.3 451.44 175.1 471.9 166.16 471.9 232.55 451.44 241.49 386.91 269.69 338.7 290.78 274.17 318.98 263.81 323.5 225.96 340.06 225.96 734.79"/><polygon class="cls-1" points="629.43 97.28 629.43 977.59 564.92 949.37 536.41 936.91 536.41 870.5 564.92 882.98 564.92 191.87 536.41 204.35 536.41 137.96 564.92 125.48 629.43 97.28"/><polygon class="cls-2" points="564.92 760.69 564.92 827.1 536.41 814.62 536.41 748.23 564.92 760.69"/><polygon class="cls-2" points="718.26 180.73 718.26 894.15 653.73 865.92 629.43 855.3 629.43 788.91 653.73 799.53 653.73 275.34 629.43 285.96 629.43 219.55 653.73 208.93 718.26 180.73"/><polygon class="cls-2" points="564.92 247.77 564.92 314.16 536.41 326.64 536.41 260.22 564.92 247.77"/><polygon class="cls-2" points="338.7 661.78 386.91 682.86 404.81 690.69 451.44 711.09 471.9 720.03 471.9 786.42 451.44 777.48 386.91 749.28 338.7 728.2 328.87 723.91 274.17 699.97 274.17 374.88 327.74 351.46 338.7 346.68 386.91 325.59 451.44 297.37 471.9 288.42 471.9 354.84 451.44 363.78 403.68 384.66 386.91 391.98 338.7 413.07 338.7 661.78"/><polygon class="cls-3" points="653.73 326.48 653.73 396.17 629.43 406.79 629.43 337.1 653.73 326.48"/><polygon class="cls-3" points="451.44 484.61 451.44 595.39 471.9 604.34 471.9 670.73 461.2 666.04 451.44 661.78 386.91 633.58 386.91 443.12 451.44 414.92 462.17 410.21 471.9 405.98 471.9 475.66 451.44 484.61"/><polygon class="cls-3" points="564.92 645.01 564.92 711.4 536.41 698.93 536.41 633.16 537.11 632.85 564.92 645.01"/><polygon class="cls-3" points="653.73 683.83 653.73 750.22 629.43 739.6 629.43 673.21 653.73 683.83"/><polygon class="cls-3" points="564.92 365.3 564.92 435.01 541.88 445.08 536.41 447.46 536.41 377.78 564.92 365.3"/><polygon class="cls-3" points="809.16 258.52 809.16 818.18 744.66 789.98 718.26 778.45 718.26 712.06 744.66 723.59 744.66 356.41 718.26 367.97 718.26 298.26 744.66 286.72 809.16 258.52"/><path class="cls-4" d="M471.9,50.46,338.7,108.69l-64.53,28.2L226,158l-64.51,28.2-47.34,20.72L55.56,232.47l-6.85,3v609l2.12.94,63.28,27.65,47.34,20.72L226,922l48.21,21.06,64.53,28.22,133.2,58.23,64.51,28.2V22.26Zm0,909.4-20.45-9-64.54-28.23L338.7,901.6l-64.53-28.2L226,852.32l-64.51-28.2L130.53,810.6l-16.42-7.17V273.28l17.42-7.62,29.92-13.08L226,224.39l48.21-21.09,64.53-28.22L386.91,154l64.54-28.23,20.45-8.94Z"/></svg>