<svg width="68" height="49" viewBox="0 0 68 49" fill="none" xmlns="http://www.w3.org/2000/svg">
<path d="M50.1424 24.1516L39.409 13.5282L43.7174 9.33862L50.1424 15.6977L62.9922 2.97951L67.2251 7.24385L50.1424 24.1516ZM24.2915 24.1516C20.9656 24.1516 18.1185 22.9795 15.7501 20.6354C13.3817 18.2913 12.1975 15.4733 12.1975 12.1815C12.1975 8.88974 13.3817 6.07178 15.7501 3.72764C18.1185 1.3835 20.9656 0.211426 24.2915 0.211426C27.6173 0.211426 30.4644 1.3835 32.8329 3.72764C35.2013 6.07178 36.3855 8.88974 36.3855 12.1815C36.3855 15.4733 35.2013 18.2913 32.8329 20.6354C30.4644 22.9795 27.6173 24.1516 24.2915 24.1516ZM0.103516 48.0918V39.7127C0.103516 38.017 0.544442 36.4584 1.42629 35.0369C2.30815 33.6155 3.47975 32.5307 4.94111 31.7825C8.06539 30.2364 11.2401 29.0768 14.4651 28.3037C17.6902 27.5307 20.9656 27.1441 24.2915 27.1441C27.6173 27.1441 30.8928 27.5307 34.1178 28.3037C37.3429 29.0768 40.5176 30.2364 43.6418 31.7825C45.1032 32.5307 46.2748 33.6155 47.1567 35.0369C48.0385 36.4584 48.4794 38.017 48.4794 39.7127V48.0918H0.103516Z" fill="#EF5025"/>
</svg>
