<svg width="67" height="32" viewBox="0 0 67 32" fill="none" xmlns="http://www.w3.org/2000/svg">
<path d="M15.3542 31.0725C11.0736 31.0725 7.44444 29.5961 4.46667 26.6435C1.48889 23.6909 0 20.0924 0 15.848C0 11.6036 1.48889 8.00509 4.46667 5.05247C7.44444 2.09985 11.0736 0.623535 15.3542 0.623535C17.0757 0.623535 18.7274 0.923411 20.3094 1.52316C21.8913 2.12291 23.3104 2.97641 24.5667 4.08364L29.3125 8.37417L25.125 12.1111L20.7979 8.23576C20.0535 7.58988 19.216 7.0824 18.2854 6.71332C17.3549 6.34424 16.3778 6.1597 15.3542 6.1597C12.6556 6.1597 10.3524 7.10546 8.44479 8.99699C6.53715 10.8885 5.58333 13.1722 5.58333 15.848C5.58333 18.5238 6.53715 20.8075 8.44479 22.699C10.3524 24.5905 12.6556 25.5363 15.3542 25.5363C16.3778 25.5363 17.3549 25.3517 18.2854 24.9827C19.216 24.6136 20.0535 24.1061 20.7979 23.4602L42.4333 4.08364C43.6896 2.97641 45.1087 2.12291 46.6906 1.52316C48.2726 0.923411 49.9243 0.623535 51.6458 0.623535C55.9264 0.623535 59.5556 2.09985 62.5333 5.05247C65.5111 8.00509 67 11.6036 67 15.848C67 20.0924 65.5111 23.6909 62.5333 26.6435C59.5556 29.5961 55.9264 31.0725 51.6458 31.0725C49.9243 31.0725 48.2726 30.7726 46.6906 30.1728C45.1087 29.5731 43.6896 28.7196 42.4333 27.6123L37.6875 23.3218L41.875 19.5849L46.2021 23.4602C46.9465 24.1061 47.784 24.6136 48.7146 24.9827C49.6451 25.3517 50.6222 25.5363 51.6458 25.5363C54.3444 25.5363 56.6476 24.5905 58.5552 22.699C60.4628 20.8075 61.4167 18.5238 61.4167 15.848C61.4167 13.1722 60.4628 10.8885 58.5552 8.99699C56.6476 7.10546 54.3444 6.1597 51.6458 6.1597C50.6222 6.1597 49.6451 6.34424 48.7146 6.71332C47.784 7.0824 46.9465 7.58988 46.2021 8.23576L24.5667 27.6123C23.3104 28.7196 21.8913 29.5731 20.3094 30.1728C18.7274 30.7726 17.0757 31.0725 15.3542 31.0725Z" fill="#EF5025"/>
</svg>
